<svg xmlns="http://www.w3.org/2000/svg" viewBox="0 0 24 24" aria-hidden="true">
  <path fill="currentColor" d="M12 2.01c-3.27 0-8.13 2.21-8.13 2.21S3.58 8.5 3.58 10.84c0 2.34.29 6.62.29 6.62S8.73 19.67 12 19.67s8.13-2.21 8.13-2.21.29-4.28.29-6.62c0-2.34-.29-6.62-.29-6.62S15.27 2.01 12 2.01zm-5.02 4.12c1.9 0 3.27 2.16 5.02 4.03 1.75-1.87 3.12-4.03 5.02-4.03 1.54 0 2.79 1.36 2.79 3.04 0 2.62-2.5 4.2-5.02 4.2h-1.65l1.65 1.66c2.52 0 5.02 1.58 5.02 4.2 0 1.68-1.25 3.04-2.79 3.04-1.9 0-3.27-2.16-5.02-4.03-1.75 1.87-3.12 4.03-5.02 4.03-1.54 0-2.79-1.36-2.79-3.04 0-2.62 2.5-4.2 5.02-4.2h1.65l-1.65-1.66c-2.52 0-5.02-1.58-5.02-4.2 0-1.68 1.25-3.04 2.79-3.04z"/>
</svg>
