<svg xmlns="http://www.w3.org/2000/svg" viewBox="0 0 24 24" aria-hidden="true">
  <path fill="currentColor" d="M12 0C5.37 0 0 5.37 0 12c0 5.3 3.44 9.8 8.2 11.38.6.11.82-.26.82-.58 0-.29-.01-1.05-.02-2.06-3.34.73-4.04-1.61-4.04-1.61-.55-1.4-1.35-1.77-1.35-1.77-1.1-.75.08-.74.08-.74 1.22.09 1.86 1.25 1.86 1.25 1.08 1.85 2.83 1.32 3.52 1.01.11-.79.42-1.32.76-1.62-2.66-.3-5.47-1.33-5.47-5.93 0-1.31.47-2.38 1.24-3.22-.12-.3-.54-1.52.12-3.17 0 0 1.01-.32 3.3 1.23.96-.27 1.99-.4 3.02-.4 1.03 0 2.06.14 3.02.4 2.29-1.55 3.3-1.23 3.3-1.23.66 1.65.24 2.87.12 3.17.77.84 1.24 1.91 1.24 3.22 0 4.61-2.81 5.63-5.49 5.93.43.37.81 1.1.81 2.22 0 1.6-.02 2.88-.02 3.27 0 .32.22.7.83.58C20.56 21.8 24 17.3 24 12 24 5.37 18.63 0 12 0z"/>
</svg>
