<svg xmlns="http://www.w3.org/2000/svg" viewBox="0 0 24 24" aria-hidden="true">
  <path fill="currentColor" d="M20.447 20.452H17.21v-5.569c0-1.328-.027-3.037-1.852-3.037-1.853 0-2.136 1.445-2.136 2.939v5.667H9.948V9h3.105v1.561h.045c.434-.823 1.494-1.691 3.074-1.691 3.289 0 3.894 2.164 3.894 4.977v6.605zM5.337 7.433c-1.002 0-1.815-.813-1.815-1.815 0-1.003.813-1.816 1.815-1.816s1.816.813 1.816 1.816c0 1.002-.814 1.815-1.816 1.815zM6.956 20.452H3.719V9h3.237v11.452zM22.225 0H1.771C.792 0 0 .774 0 1.729v20.542C0 23.227.792 24 1.771 24h20.451C23.2 24 24 23.227 24 22.271V1.729C24 .774 23.2 0 22.222 0h.003z"/>
</svg>
